<?xml version="1.0" encoding="UTF-8"?>
<svg id="Capa_2" data-name="Capa 2" xmlns="http://www.w3.org/2000/svg" viewBox="0 0 357.51 242.56">
  <defs>
    <style>
      .cls-1 {
        fill: #36d6a1;
      }

      .cls-2 {
        fill: #fc713e;
      }
    </style>
  </defs>
  <g id="Capa_1-2" data-name="Capa 1">
    <g>
      <g>
        <path class="cls-1" d="M136.24,55.43c-6.14,7.86-13.89,11.86-23.74,15.86-5.01,1.93-11.3,3.03-18.9,3.17,1.13,13.65,2.75,26.61,3.55,39.58-12.27,2.48-21.8,3.03-29.07,1.1.65-9.1.32-13.37.32-18.62,0-3.03-.97-25.51-2.75-71.43l-5.98,1.38-1.62-19.58c9.04-2.07,31.65-6.89,44.25-6.89,20.67,0,34.24,5.24,40.54,15.72,2.58,4,3.71,8.27,3.71,12.69,0,7.86-4.2,18.75-10.34,27.03ZM114.28,22.06c-4.2-1.93-9.21-1.79-15.02-1.93-1.77,0-4.52.28-8.24.83.48,12.41,1.13,22.75,1.78,34.89,6.46,0,11.79-1.52,15.83-4.69,4.2-2.9,10.01-12.27,10.17-20.13,0-4.27-1.45-7.31-4.52-8.96Z"/>
        <path class="cls-1" d="M159.98,107.55l-1.13-43.3c-3.39.14-9.85,1.1-9.85,1.1l-.16-19.99c1.62,0,8.08-.83,9.53-.97-.16-12.27-.65-27.3-.81-38.47,3.07.14,15.02-.28,18.25-.28,2.75,0,22.93-.97,46.19-2.21,2.42,5.38,1.94,8.55,1.94,10.76,0,1.65,0,2.9-1.29,8.82-13.08.97-15.02.97-16.63,1.1-7.11.42-8.72.69-20.51,1.1,0,5.51,0,11.17.16,16.55,9.53-1.1,25.19-2.76,33.75-4.27,1.62,4.83,2.75,12.41,1.62,19.58-21.32,3.31-23.74,3.86-34.89,4.96l.49,15.44c10.01-2.35,23.9-4.96,37.31-6.76,2.1,6.48,1.94,16.41,1.45,20.68-13.4,2.34-45.7,8.69-65.41,16.13Z"/>
        <path class="cls-1" d="M324.88,33.78l-15.34-1.52-21.48-.28c-.81,6.34-.32,18.75-.48,28.41-.16,6.62.65,13.38,1.78,33.65l.65,7.17c-5.17,2.9-15.02,3.45-30.2,2.76l-.65-9.52,1.78-35.57,1.29-27.17c-6.62-.41-13.24-.41-21.16.14l-12.6,1.93c-.97-4.14-.97-10.62-.97-12.69,0-.83,1.29-7.72,2.42-10.89l10.17,1.1c10.18.14,18.25-.14,36.34,0,12.92.14,34.24-1.1,34.24-1.1l14.21-.69c1.13,3.58.97,18.62,0,24.27Z"/>
      </g>
      <g>
        <path class="cls-2" d="M108.78,173.39c0,9.32-5.83,16.87-13.02,16.87s-13.02-7.55-13.02-16.87,5.83-20.22,13.02-20.22,13.02,10.91,13.02,20.22Z"/>
        <path class="cls-2" d="M145.13,154.84c0,9.32-5.83,16.87-13.02,16.87s-13.02-7.55-13.02-16.87,5.83-20.22,13.02-20.22,13.02,10.91,13.02,20.22Z"/>
        <path class="cls-2" d="M182.88,173.39c0,9.32-5.83,16.87-13.02,16.87s-13.02-7.55-13.02-16.87,5.83-20.22,13.02-20.22,13.02,10.91,13.02,20.22Z"/>
        <path class="cls-2" d="M162.43,220.26c0-20.73-14.26-39.87-30.26-39.87s-30.39,21.47-30.39,42.2c0,16.11,10.54,19.27,22.75,19.89v-16.43c0-4.09,2.56-7.4,5.71-7.4h3.73c3.15,0,5.71,3.31,5.71,7.4v16.51c13.59-.43,22.75-3.55,22.75-22.3Z"/>
      </g>
      <path class="cls-1" d="M59.23,232.59c-3.78.85-7.68,1.49-9.58,1.49-2.01,0-5.67-.53-10.52-1.49v-6.49l.24-21.93h-11.47c.12,7.02.47,15.01.59,21.39-5.67,1.07-8.63,1.49-10.52,1.49-1.66,0-5.56-.32-9.46-.75l-.71-22.14H0v-15.11h7.69l-.83-43.53c5.67-1.17,8.87-1.49,10.76-1.49,1.42,0,2.6,0,9.34,1.17l.83,43.74h11.7c.12-16.71.47-35.12.59-51.62,5.08-1.38,7.8-1.81,9.69-1.81s4.73.43,10.41,1.49l-.59,51.94c4.14,0,8.87-.11,11.23-.11v14.9l-11.35.21c0,9.26-.24,20.01-.24,28.63Z"/>
      <path class="cls-1" d="M309.4,227.91l-.83-33.42c-2.48.11-7.21.85-7.21.85l-.12-15.43c1.18,0,5.91-.64,6.98-.74-.12-9.47-.47-21.07-.59-29.69,2.25.11,10.99-.21,13.36-.21,2.01,0,16.79-.74,33.81-1.7,1.77,4.15,1.42,6.6,1.42,8.3,0,1.28,0,2.23-.95,6.81-9.58.74-11,.74-12.18.85-5.2.32-6.39.53-15.02.85,0,4.26,0,8.62.12,12.77,6.98-.85,18.44-2.13,24.71-3.3,1.18,3.72,2.01,9.58,1.18,15.11-15.61,2.55-17.38,2.98-25.54,3.83l.35,11.92c7.33-1.81,17.5-3.83,27.31-5.22,1.54,5,1.42,12.67,1.06,15.97-9.81,1.81-33.46,6.7-47.88,12.45Z"/>
      <path class="cls-1" d="M275.66,232.11c-2.63,0-6.17-.8-10.51-2.28v-6.97c.23-1.94-.57-4.23-.57-6.4,0-12.79-1.6-31.98-2.85-40.2-5.83,11.08-12.56,33.92-15.3,42.37h-9.25l-18.05-30.04c-.69,14.5-.57,25.35-1.14,38.83-5.37.69-9.02,1.03-10.74,1.03-2.97,0-6.74-.8-11.08-2.4l.11-6.74,5.48-70.47,11.99-8.68,25.36,45c2.97-10.62,15.42-35.41,21.13-44.43l16.56,5.6.69,6.17c.46,3.2,1.03,6.85,1.83,11.42l1.26,7.77c2.17,14.85,5.14,41.12,6.05,51.28l.34,6.74c-3.2,1.14-6.85,2.4-11.31,2.4Z"/>
    </g>
  </g>
</svg>