<?xml version="1.0" encoding="UTF-8"?>
<svg id="Capa_2" data-name="Capa 2" xmlns="http://www.w3.org/2000/svg" viewBox="0 0 318.83 216.32">
  <defs>
    <style>
      .cls-1 {
        fill: #36d6a1;
      }

      .cls-2 {
        fill: #fc713e;
      }
    </style>
  </defs>
  <g id="Capa_1-2" data-name="Capa 1">
    <g>
      <g>
        <path class="cls-2" d="M121.5,49.43c-5.47,7.01-12.39,10.57-21.17,14.14-4.46,1.72-10.08,2.71-16.85,2.83,1.01,12.17,2.45,23.73,3.17,35.29-10.95,2.21-19.44,2.7-25.93.98.58-8.12.29-11.93.29-16.6,0-2.71-.86-22.75-2.45-63.7l-5.33,1.23-1.44-17.46c8.07-1.85,28.23-6.15,39.46-6.15,18.44,0,30.53,4.67,36.15,14.02,2.3,3.56,3.31,7.38,3.31,11.31,0,7.01-3.75,16.72-9.22,24.1ZM101.91,19.68c-3.74-1.72-8.21-1.6-13.4-1.72-1.58,0-4.03.25-7.34.74.43,11.07,1.01,20.29,1.58,31.11,5.76,0,10.51-1.35,14.12-4.18,3.74-2.58,8.93-10.94,9.07-17.95,0-3.81-1.29-6.52-4.03-7.99Z"/>
        <path class="cls-2" d="M142.68,95.92l-1.01-38.61c-3.02.12-8.78.98-8.78.98l-.15-17.83c1.44,0,7.2-.74,8.5-.86-.15-10.94-.58-24.35-.72-34.31,2.74.12,13.39-.25,16.27-.25,2.45,0,20.45-.86,41.19-1.97,2.16,4.8,1.73,7.62,1.73,9.59,0,1.48,0,2.58-1.15,7.87-11.67.86-13.4.86-14.83.98-6.34.37-7.78.62-18.29.98,0,4.92,0,9.96.15,14.76,8.5-.98,22.47-2.46,30.1-3.81,1.44,4.3,2.45,11.07,1.44,17.46-19.01,2.95-21.17,3.44-31.11,4.43l.43,13.77c8.93-2.09,21.31-4.43,33.27-6.03,1.87,5.78,1.73,14.63,1.29,18.45-11.95,2.09-40.76,7.75-58.33,14.39Z"/>
        <path class="cls-2" d="M289.73,30.13l-13.68-1.35-19.16-.25c-.72,5.66-.29,16.73-.43,25.33-.14,5.9.58,11.93,1.58,30.01l.58,6.4c-4.61,2.58-13.4,3.07-26.93,2.46l-.58-8.49,1.58-31.72,1.15-24.23c-5.91-.37-11.81-.37-18.87.12l-11.23,1.72c-.87-3.69-.87-9.47-.87-11.31,0-.74,1.15-6.89,2.16-9.72l9.07.98c9.07.12,16.28-.12,32.41,0,11.52.12,30.53-.98,30.53-.98l12.67-.61c1.01,3.2.87,16.6,0,21.64Z"/>
      </g>
      <g>
        <path class="cls-1" d="M97.02,154.63c0,8.31-5.2,15.05-11.61,15.05s-11.61-6.74-11.61-15.05,5.2-18.04,11.61-18.04,11.61,9.73,11.61,18.04Z"/>
        <path class="cls-1" d="M129.43,138.09c0,8.31-5.2,15.05-11.61,15.05s-11.61-6.74-11.61-15.05,5.2-18.04,11.61-18.04,11.61,9.73,11.61,18.04Z"/>
        <path class="cls-1" d="M163.1,154.63c0,8.31-5.2,15.05-11.61,15.05s-11.61-6.74-11.61-15.05,5.2-18.04,11.61-18.04,11.61,9.73,11.61,18.04Z"/>
        <path class="cls-1" d="M144.86,196.43c0-18.49-12.72-35.55-26.99-35.55s-27.1,19.15-27.1,37.63c0,14.36,9.4,17.19,20.29,17.74v-14.65c0-3.64,2.28-6.6,5.09-6.6h3.33c2.81,0,5.09,2.95,5.09,6.6v14.72c12.12-.38,20.29-3.17,20.29-19.89Z"/>
      </g>
      <path class="cls-2" d="M52.82,207.43c-3.37.76-6.85,1.33-8.54,1.33-1.79,0-5.06-.47-9.38-1.33v-5.79l.21-19.55h-10.23c.11,6.26.42,13.38.53,19.08-5.06.95-7.7,1.33-9.38,1.33-1.48,0-4.96-.29-8.44-.67l-.63-19.74H0v-13.48h6.85l-.74-38.82c5.06-1.04,7.91-1.33,9.6-1.33,1.27,0,2.32,0,8.33,1.04l.74,39.01h10.44c.11-14.9.42-31.32.53-46.03,4.53-1.23,6.96-1.61,8.65-1.61s4.22.38,9.28,1.33l-.53,46.32c3.69,0,7.91-.1,10.02-.1v13.29l-10.12.19c0,8.26-.21,17.84-.21,25.53Z"/>
      <path class="cls-2" d="M275.93,203.25l-.74-29.8c-2.21.09-6.43.76-6.43.76l-.11-13.76c1.05,0,5.27-.57,6.22-.66-.1-8.45-.42-18.79-.53-26.48,2,.09,9.8-.19,11.91-.19,1.79,0,14.97-.66,30.15-1.52,1.58,3.7,1.27,5.88,1.27,7.4,0,1.14,0,1.99-.84,6.07-8.54.66-9.81.66-10.86.76-4.64.29-5.69.48-13.39.76,0,3.8,0,7.69.11,11.39,6.22-.76,16.45-1.9,22.04-2.94,1.06,3.32,1.79,8.54,1.06,13.48-13.92,2.28-15.5,2.66-22.78,3.42l.32,10.63c6.54-1.61,15.61-3.42,24.36-4.65,1.37,4.46,1.26,11.29.95,14.24-8.75,1.61-29.84,5.98-42.7,11.1Z"/>
      <path class="cls-2" d="M245.84,207c-2.34,0-5.5-.71-9.37-2.04v-6.21c.2-1.73-.51-3.77-.51-5.7,0-11.41-1.43-28.52-2.55-35.85-5.19,9.88-11.2,30.25-13.65,37.79h-8.25l-16.09-26.79c-.61,12.94-.51,22.61-1.02,34.63-4.79.61-8.05.92-9.57.92-2.65,0-6.01-.71-9.88-2.14l.1-6.01,4.89-62.84,10.69-7.74,22.61,40.13c2.65-9.47,13.75-31.57,18.84-39.62l14.77,4.99.61,5.5c.41,2.85.92,6.11,1.63,10.19l1.12,6.93c1.94,13.24,4.58,36.67,5.4,45.73l.31,6.01c-2.85,1.02-6.11,2.14-10.08,2.14Z"/>
    </g>
  </g>
</svg>